General
Complete name                            : Tangled.Ever.After.(2012).BluRay.1080p.x264.Eng.DTS.AMX.mkv
Format                                   : Matroska
Format version                           : Version 2
File size                                : 316 MiB
Duration                                 : 6mn 29s
Overall bit rate                         : 6 807 Kbps

Video
ID                                       : 1
Format                                   : AVC
Format/Info                              : Advanced Video Codec
Format profile                           : High@L5.1
Format settings, CABAC                   : Yes
Format settings, ReFrames                : 16 frames
Codec ID                                 : V_MPEG4/ISO/AVC
Duration                                 : 6mn 29s
Bit rate                                 : 5 162 Kbps
Width                                    : 1 920 pixels
Height                                   : 1 056 pixels
Display aspect ratio                     : 16:9
Frame rate                               : 23.976 fps
Color space                              : YUV
Chroma subsampling                       : 4:2:0
Bit depth                                : 8 bits
Scan type                                : Progressive
Bits/(Pixel*Frame)                       : 0.106
Stream size                              : 239 MiB (76%)
Writing library                          : x264 core 125 r2208 d9d2288
Default                                  : Yes
Forced                                   : No

Audio
ID                                       : 2
Format                                   : DTS
Format/Info                              : Digital Theater Systems
Codec ID                                 : A_DTS
Duration                                 : 6mn 29s
Bit rate mode                            : Constant
Bit rate                                 : 1 510 Kbps
Channel(s)                               : 6 channels
Channel positions                        : Front: L C R, Side: L R, LFE
Sampling rate                            : 48.0 KHz
Bit depth                                : 24 bits
Compression mode                         : Lossy
Stream size                              : 70.0 MiB (22%)
Language                                 : English
Default                                  : Yes
Forced                                   : No
